# xmcd
#
# Track frame offsets:
#	150
#	15125
#	27203
#	40576
#	53942
#	63617
#	77421
#
# Disc length: 1208 seconds
# Revision: 0
# Processed by: cddbd v1.5.2PL0 Copyright (c) Steve Scherf et al.
# Submitted via: dBpowerAMP V12.0
#
DISCID=4504b607
DTITLE=The Vivants - Blugrass Special
DYEAR=2015
DGENRE=Country
TTITLE0=Bluegrass Special
TTITLE1=You'll Meet Him in the Clouds
TTITLE2=I Heard My Savior Call
TTITLE3=Asheville
TTITLE4=Pig's Foot
TTITLE5=By and By
TTITLE6=5 String Step Around
EXTD=
EXTT0=
EXTT1=
EXTT2=
EXTT3=
EXTT4=
EXTT5=
EXTT6=
PLAYORDER=
